<svg id="Ebene_1" data-name="Ebene 1" fill="white" xmlns="http://www.w3.org/2000/svg" viewBox="0 0 496.25 608.73"  ><defs><style>.cls-1{fill-rule:evenodd;}</style></defs><title>apple-logo</title><path class="cls-1" d="M324.4,170.78c40-52.72,95.6-53,95.6-53s8.27,49.57-31.46,97.31c-42.42,51-90.65,42.64-90.65,42.64S288.84,217.65,324.4,170.78Z" transform="translate(-50.59 -117.8)"/><path class="cls-1" d="M303,292.47c20.58,0,58.76-28.29,108.47-28.29,85.56,0,119.22,60.89,119.22,60.89s-65.83,33.65-65.83,115.33c0,92.13,82,123.88,82,123.88S489.52,725.64,412.09,725.64c-35.57,0-63.22-24-100.69-24-38.19,0-76.09,24.86-100.77,24.86-70.71,0-160-153.06-160-276.1,0-121,75.62-184.55,146.54-184.55C243.23,265.88,279,292.47,303,292.47Z" transform="translate(-50.59 -117.8)"/></svg>